<svg width="640" height="480" xmlns="http://www.w3.org/2000/svg" xmlns:svg="http://www.w3.org/2000/svg">
 <!-- Created with SVG-edit - https://github.com/SVG-Edit/svgedit-->
 <g class="layer">
  <title>Layer 1</title>
  <rect fill="#FF0000" height="42" id="svg_2" stroke="#000000" stroke-width="5" width="32" x="115" y="91"/>
  <path d="m307,138c5,-2 271,109 97,-15c-174,-124 -97,15 -97,15z" fill="#FF0000" id="svg_1" stroke="#000000" stroke-width="5"/>
  <path d="m58,304c-1,-1 433,-289 13,19c-420,308 308,-70 308,-70c0,0 -114,269 -123,123c-9,-146 -11,-146 -11,-146c0,0 370,-227 198,-43c-172,184 103,82 107,81c4,-1 26,-6 36,-78c10,-72 10,-74 10,-74c0,0 -3,-13 -3,-13c0,0 85,-112 -94,-37c-179,75 -297,80 -297,80c0,0 -144,158 -144,158z" fill="#FF0000" id="svg_3" stroke="#000000" stroke-width="5"/>
 </g>
</svg>